<svg width="888" height="130" viewBox="0 0 888 130" xmlns="http://www.w3.org/2000/svg">
  <title>
    React Intersection List Logo
  </title>
  <defs>
    <linearGradient x1="13.2263485%" y1="13.0966785%" x2="100.024032%" y2="99.0434052%" id="a">
      <stop stop-color="#FFA200" offset="0%"/>
      <stop stop-color="#FFF" stop-opacity="0" offset="100%"/>
    </linearGradient>
  </defs>
  <g fill="none" fill-rule="evenodd">
    <g transform="translate(175 15)">
      <rect fill="#FFC14D" width="100" height="100" rx="12"/>
      <rect fill="url(#a)" style="mix-blend-mode:multiply" transform="rotate(-180 50 50)" width="100" height="100" rx="12"/>
    </g>
    <path d="M309.416992 67.9208984h-7.013672V80h-3.958008V50.140625h9.884766c3.363298 0 5.950675.7656173 7.762207 2.296875 1.811533 1.5312577 2.717285 3.759751 2.717285 6.6855469 0 1.8593843-.502436 3.4794853-1.507324 4.8603515-1.004888 1.3808663-2.402823 2.4130826-4.193848 3.0966797l7.013672 12.6738281V80h-4.224609l-6.480469-12.0791016zm-7.013672-3.2197265h6.049805c1.955088 0 3.510248-.5058543 4.665527-1.5175781 1.15528-1.0117239 1.73291-2.3652259 1.73291-4.0605469 0-1.8457124-.550287-3.2607373-1.650878-4.2451172-1.100592-.9843799-2.689931-1.4833984-4.768067-1.4970703h-6.029297v11.3203125zm30.536133 15.7089843c-3.007827 0-5.455069-.987783-7.341797-2.9633789-1.886728-1.9755958-2.830078-4.6176592-2.830078-7.9262695v-.6972656c0-2.2011829.420406-4.1664953 1.261231-5.8959961.840824-1.7295008 2.016594-3.0830029 3.527343-4.0605469 1.51075-.9775439 3.147941-1.4663086 4.911621-1.4663086 2.88478 0 5.126946.9501858 6.726563 2.850586 1.599617 1.9004001 2.399414 4.621076 2.399414 8.1621093v1.5791016h-15.032227c.054688 2.1875109.693842 3.9545831 1.917481 5.3012695 1.223639 1.3466865 2.778799 2.0200196 4.665527 2.0200196 1.339851 0 2.474605-.2734348 3.404297-.8203125.929692-.5468778 1.743161-1.2714799 2.44043-2.1738282l2.317383 1.8046875c-1.859385 2.8574362-4.648419 4.2861328-8.367188 4.2861328zm-.47168-19.8925781c-1.531257 0-2.816401.5571234-3.855468 1.6713867-1.039068 1.1142634-1.68164 2.6762595-1.927735 4.6860352h11.115235v-.2871094c-.109376-1.927744-.628902-3.4213814-1.558594-4.480957-.929692-1.0595756-2.187492-1.5893555-3.773438-1.5893555zM359.681641 80c-.218751-.4375022-.396484-1.2167913-.533203-2.3378906-1.763681 1.8320404-3.869129 2.7480468-6.316407 2.7480468-2.187511 0-3.981926-.6186461-5.383301-1.855957-1.401374-1.2373109-2.10205-2.8061428-2.10205-4.706543 0-2.3105584.878409-4.104974 2.635254-5.3833007 1.756844-1.2783267 4.228011-1.9174805 7.413574-1.9174805h3.691406v-1.7431641c0-1.3261785-.39648-2.3823203-1.189453-3.168457-.792973-.7861367-1.961906-1.1791992-3.506836-1.1791992-1.353522 0-2.488277.3417934-3.404297 1.0253906-.91602.6835972-1.374023 1.5107373-1.374023 2.4814453h-3.814453c0-1.1074274.393062-2.1772409 1.179199-3.2094726.786137-1.0322318 1.852532-1.8491181 3.199219-2.4506836 1.346686-.6015655 2.826652-.9023438 4.439941-.9023438 2.556653 0 4.559563.6391538 6.008789 1.9174805 1.449226 1.2783267 2.201172 3.038563 2.255859 5.2807617v10.2128906c0 2.0371196.259763 3.6572206.779297 4.8603516V80h-3.978515zm-6.295899-2.8916016c1.189459 0 2.317378-.3076141 3.383789-.9228515 1.066412-.6152375 1.838865-1.4150342 2.317383-2.3994141v-4.5527344h-2.973633c-4.64846 0-6.972656 1.360338-6.972656 4.0810547 0 1.1894591.39648 2.1191373 1.189453 2.7890625.792973.6699252 1.811517 1.0048828 3.055664 1.0048828zm24.342774.2050782c1.353522 0 2.536127-.4101522 3.547851-1.2304688s1.572265-1.845697 1.681641-3.0761719h3.588867c-.06836 1.2714908-.505855 2.4814396-1.3125 3.6298829-.806645 1.1484432-1.883294 2.0644497-3.22998 2.7480468-1.346687.6835972-2.771966 1.0253906-4.275879 1.0253906-3.0215 0-5.424308-1.0082906-7.208496-3.0249023-1.784189-2.0166116-2.67627-4.7748848-2.67627-8.2749023v-.6357422c0-2.1601671.39648-4.0810463 1.189453-5.7626953.792973-1.6816491 1.931145-2.9873001 3.414551-3.9169922 1.483406-.9296922 3.236806-1.3945313 5.260254-1.3945313 2.488294 0 4.556144.7451098 6.203613 2.2353516s2.525878 3.4247928 2.635254 5.8037109h-3.588867c-.109376-1.435554-.652827-2.6147415-1.630371-3.5375976-.977544-.9228562-2.184075-1.3842774-3.619629-1.3842774-1.927744 0-3.421382.6938407-4.480957 2.081543-1.059576 1.3877022-1.589356 3.3940298-1.589356 6.019043v.7177734c0 2.5566534.526362 4.5253837 1.579102 5.90625s2.556631 2.0712891 4.511719 2.0712891zM395.959961 52.4375v5.3730469h4.142578v2.9326172h-4.142578v13.7607421c0 .8886764.184568 1.5551736.553711 1.9995118.369142.4443381.998042.6665039 1.886719.6665039.437502 0 1.039058-.0820305 1.804687-.2460938V80c-.998052.2734389-1.968745.4101562-2.912109.4101562-1.695321 0-2.973629-.5126901-3.834961-1.5380859-.861333-1.0253957-1.291992-2.4814359-1.291992-4.3681641V60.7431641h-4.040039v-2.9326172h4.040039V52.4375h3.793945zM419.749023 80h-3.9375V50.140625h3.9375V80zm10.192383-22.1894531l.123047 2.7890625c1.695321-2.1328232 3.910143-3.1992188 6.644531-3.1992188 4.689477 0 7.054688 2.6454814 7.095704 7.9365235V80h-3.793946V65.3164062c-.013672-1.5996173-.379391-2.7822227-1.097168-3.5478515-.717777-.7656288-1.835441-1.1484375-3.353027-1.1484375-1.230475 0-2.310542.3281217-3.240235.984375-.929692.6562533-1.654294 1.5175728-2.173828 2.5839844V80h-3.793945V57.8105469h3.588867zM454.673828 52.4375v5.3730469h4.142578v2.9326172h-4.142578v13.7607421c0 .8886764.184569 1.5551736.553711 1.9995118.369143.4443381.998042.6665039 1.886719.6665039.437502 0 1.039058-.0820305 1.804687-.2460938V80c-.998052.2734389-1.968745.4101562-2.912109.4101562-1.695321 0-2.973629-.5126901-3.834961-1.5380859-.861332-1.0253957-1.291992-2.4814359-1.291992-4.3681641V60.7431641h-4.040039v-2.9326172h4.040039V52.4375h3.793945zm17.780274 27.9726562c-3.007828 0-5.455069-.987783-7.341797-2.9633789-1.886728-1.9755958-2.830078-4.6176592-2.830078-7.9262695v-.6972656c0-2.2011829.420406-4.1664953 1.26123-5.8959961.840825-1.7295008 2.016594-3.0830029 3.527344-4.0605469 1.51075-.9775439 3.14794-1.4663086 4.911621-1.4663086 2.88478 0 5.126945.9501858 6.726562 2.850586 1.599618 1.9004001 2.399414 4.621076 2.399414 8.1621093v1.5791016h-15.032226c.054688 2.1875109.693841 3.9545831 1.91748 5.3012695 1.223639 1.3466865 2.7788 2.0200196 4.665528 2.0200196 1.33985 0 2.474604-.2734348 3.404297-.8203125.929692-.5468778 1.74316-1.2714799 2.440429-2.1738282l2.317383 1.8046875c-1.859384 2.8574362-4.648419 4.2861328-8.367187 4.2861328zm-.47168-19.8925781c-1.531258 0-2.816401.5571234-3.855469 1.6713867-1.039068 1.1142634-1.681639 2.6762595-1.927734 4.6860352h11.115234v-.2871094c-.109375-1.927744-.628901-3.4213814-1.558594-4.480957-.929692-1.0595756-2.187492-1.5893555-3.773437-1.5893555zm24.240234.6972657c-.574221-.0957037-1.196285-.1435547-1.866211-.1435547-2.488293 0-4.176753 1.0595597-5.065429 3.1787109V80h-3.793946V57.8105469h3.691407l.061523 2.5634765c1.244147-1.9824317 3.007801-2.9736328 5.291016-2.9736328.738285 0 1.298826.0957022 1.68164.2871094v3.5273438zm16.40625 12.899414c0-1.0253957-.386226-1.8217745-1.158691-2.3891601-.772465-.5673857-2.119131-1.0561503-4.040039-1.4663086-1.920908-.4101583-3.445307-.9023409-4.573242-1.4765625-1.127936-.5742217-1.961912-1.2578086-2.501954-2.0507813-.540041-.7929727-.810058-1.7363226-.810058-2.8300781 0-1.8183685.769035-3.356439 2.307129-4.6142578 1.538093-1.2578188 3.503406-1.8867188 5.895996-1.8867188 2.515637 0 4.556144.6494076 6.121582 1.9482422 1.565437 1.2988346 2.348144 2.9599508 2.348144 4.9833984h-3.814453c0-1.0390676-.440913-1.9345665-1.322754-2.6865234-.88184-.7519569-1.992669-1.1279297-3.332519-1.1279297-1.380866 0-2.460934.3007783-3.240235.9023438-.7793.6015655-1.168945 1.3876904-1.168945 2.3583984 0 .9160202.362301 1.606443 1.086914 2.0712891.724613.464846 2.033682.9091775 3.927246 1.3330078 1.893564.4238302 3.428217.9296845 4.604004 1.5175781 1.175787.5878936 2.047361 1.295406 2.614746 2.1225586.567386.8271526.851075 1.8354433.851075 3.0249023 0 1.9824318-.792961 3.5717714-2.378907 4.7680665-1.585945 1.196295-3.643542 1.7944335-6.172851 1.7944335-1.777353 0-3.349603-.3144499-4.716797-.9433593-1.367194-.6289094-2.437008-1.5073186-3.209473-2.6352539-.772465-1.1279354-1.158691-2.348138-1.158691-3.6606446h3.793945c.06836 1.2714908.577632 2.2797815 1.527832 3.0249024.9502.7451209 2.204582 1.1176758 3.763184 1.1176758 1.435554 0 2.587398-.2905245 3.455566-.8715821.868169-.5810576 1.302246-1.3569287 1.302246-2.3276367zm17.944336 6.2958984c-3.007827 0-5.455069-.987783-7.341797-2.9633789-1.886728-1.9755958-2.830078-4.6176592-2.830078-7.9262695v-.6972656c0-2.2011829.420406-4.1664953 1.261231-5.8959961.840824-1.7295008 2.016594-3.0830029 3.527343-4.0605469 1.51075-.9775439 3.147941-1.4663086 4.911621-1.4663086 2.884781 0 5.126946.9501858 6.726563 2.850586 1.599617 1.9004001 2.399414 4.621076 2.399414 8.1621093v1.5791016h-15.032227c.054688 2.1875109.693842 3.9545831 1.917481 5.3012695 1.223639 1.3466865 2.778799 2.0200196 4.665527 2.0200196 1.339851 0 2.474605-.2734348 3.404297-.8203125.929692-.5468778 1.743161-1.2714799 2.44043-2.1738282l2.317383 1.8046875c-1.859385 2.8574362-4.648419 4.2861328-8.367188 4.2861328zm-.47168-19.8925781c-1.531257 0-2.816401.5571234-3.855468 1.6713867-1.039068 1.1142634-1.68164 2.6762595-1.927735 4.6860352h11.115235v-.2871094c-.109376-1.927744-.628902-3.4213814-1.558594-4.480957-.929692-1.0595756-2.187492-1.5893555-3.773438-1.5893555zm22.41504 16.7958985c1.353522 0 2.536127-.4101522 3.547851-1.2304688s1.572265-1.845697 1.681641-3.0761719h3.588867c-.06836 1.2714908-.505855 2.4814396-1.3125 3.6298829-.806645 1.1484432-1.883294 2.0644497-3.229981 2.7480468-1.346686.6835972-2.771965 1.0253906-4.275878 1.0253906-3.0215 0-5.424308-1.0082906-7.208497-3.0249023-1.784188-2.0166116-2.676269-4.7748848-2.676269-8.2749023v-.6357422c0-2.1601671.39648-4.0810463 1.189453-5.7626953.792973-1.6816491 1.931145-2.9873001 3.414551-3.9169922 1.483406-.9296922 3.236806-1.3945313 5.260254-1.3945313 2.488293 0 4.556144.7451098 6.203613 2.2353516s2.525878 3.4247928 2.635254 5.8037109h-3.588867c-.109376-1.435554-.652827-2.6147415-1.630371-3.5375976-.977544-.9228562-2.184075-1.3842774-3.619629-1.3842774-1.927744 0-3.421382.6938407-4.480957 2.081543-1.059576 1.3877022-1.589356 3.3940298-1.589356 6.019043v.7177734c0 2.5566534.526362 4.5253837 1.579102 5.90625 1.052739 1.3808663 2.556631 2.0712891 4.511719 2.0712891zM570.748047 52.4375v5.3730469h4.142578v2.9326172h-4.142578v13.7607421c0 .8886764.184568 1.5551736.553711 1.9995118.369142.4443381.998042.6665039 1.886719.6665039.437502 0 1.039058-.0820305 1.804687-.2460938V80c-.998052.2734389-1.968745.4101562-2.912109.4101562-1.695321 0-2.973629-.5126901-3.834961-1.5380859-.861333-1.0253957-1.291992-2.4814359-1.291992-4.3681641V60.7431641h-4.04004v-2.9326172h4.04004V52.4375h3.793945zM583.442383 80h-3.793945V57.8105469h3.793945V80zm-4.101563-28.0751953c0-.6152375.187987-1.1347635.563965-1.5585938.375979-.4238302.933102-.6357421 1.671387-.6357421s1.298826.2119119 1.68164.6357421c.382815.4238303.574219.9433563.574219 1.5585938 0 .6152374-.191404 1.1279276-.574219 1.5380859-.382814.4101583-.943355.6152344-1.68164.6152344s-1.295408-.2050761-1.671387-.6152344c-.375978-.4101583-.563965-.9228485-.563965-1.5380859zm9.166992 16.7753906c0-2.173839.427242-4.1288976 1.281739-5.8652344.854496-1.7363368 2.043937-3.0761671 3.568359-4.0195312 1.524422-.9433641 3.264151-1.4150391 5.219238-1.4150391 3.0215 0 5.465323 1.045888 7.331543 3.1376953 1.866221 2.0918074 2.799317 4.8740061 2.799317 8.3466797v.2666016c0 2.160167-.41357 4.0981359-1.240723 5.8139648-.827152 1.7158289-2.009758 3.0522413-3.547851 4.0092774-1.538094.957036-3.305166 1.4355468-5.30127 1.4355468-3.007827 0-5.444815-1.0458879-7.311035-3.1376953-1.86622-2.0918073-2.799317-4.8603343-2.799317-8.305664v-.2666016zm3.814454.4511719c0 2.4609498.570795 4.436516 1.712402 5.9267578 1.141607 1.4902418 2.669424 2.2353516 4.583496 2.2353516 1.927744 0 3.458979-.7553636 4.59375-2.2661133 1.134771-1.5107498 1.702148-3.6264513 1.702148-6.347168 0-2.4336059-.57763-4.4057542-1.73291-5.9165039-1.155279-1.5107497-2.689931-2.2661133-4.604004-2.2661133-1.873056 0-3.383783.7451098-4.532226 2.2353516-1.148443 1.4902418-1.722656 3.623033-1.722656 6.3984375zm24.732422-11.3408203l.123046 2.7890625c1.695321-2.1328232 3.910143-3.1992188 6.644532-3.1992188 4.689476 0 7.054687 2.6454814 7.095703 7.9365235V80h-3.793946V65.3164062c-.013672-1.5996173-.379391-2.7822227-1.097168-3.5478515-.717777-.7656288-1.835441-1.1484375-3.353027-1.1484375-1.230475 0-2.310542.3281217-3.240234.984375-.929692.6562533-1.654295 1.5175728-2.173828 2.5839844V80h-3.793946V57.8105469h3.588868zm34.535156 18.9697265h14.15039V80h-18.108398V50.140625h3.958008v26.6396484zM673.758789 80h-3.793945V57.8105469h3.793945V80zm-4.101562-28.0751953c0-.6152375.187986-1.1347635.563964-1.5585938.375979-.4238302.933102-.6357421 1.671387-.6357421s1.298826.2119119 1.681641.6357421c.382814.4238303.574219.9433563.574219 1.5585938 0 .6152374-.191405 1.1279276-.574219 1.5380859-.382815.4101583-.943356.6152344-1.681641.6152344s-1.295408-.2050761-1.671387-.6152344c-.375978-.4101583-.563964-.9228485-.563964-1.5380859zm23.091796 22.1894531c0-1.0253957-.386226-1.8217745-1.158691-2.3891601-.772465-.5673857-2.119131-1.0561503-4.040039-1.4663086-1.920908-.4101583-3.445307-.9023409-4.573242-1.4765625-1.127936-.5742217-1.961912-1.2578086-2.501953-2.0507813-.540042-.7929727-.810059-1.7363226-.810059-2.8300781 0-1.8183685.769035-3.356439 2.307129-4.6142578s3.503406-1.8867188 5.895996-1.8867188c2.515638 0 4.556145.6494076 6.121582 1.9482422 1.565438 1.2988346 2.348145 2.9599508 2.348145 4.9833984h-3.814453c0-1.0390676-.440914-1.9345665-1.322754-2.6865234-.881841-.7519569-1.992669-1.1279297-3.33252-1.1279297-1.380866 0-2.460934.3007783-3.240234.9023438-.779301.6015655-1.168946 1.3876904-1.168946 2.3583984 0 .9160202.362301 1.606443 1.086914 2.0712891.724613.464846 2.033682.9091775 3.927247 1.3330078 1.893564.4238302 3.428216.9296845 4.604003 1.5175781 1.175788.5878936 2.047361 1.295406 2.614747 2.1225586.567385.8271526.851074 1.8354433.851074 3.0249023 0 1.9824318-.792961 3.5717714-2.378907 4.7680665-1.585945 1.196295-3.643542 1.7944335-6.172851 1.7944335-1.777353 0-3.349603-.3144499-4.716797-.9433593-1.367194-.6289094-2.437008-1.5073186-3.209473-2.6352539-.772464-1.1279354-1.158691-2.348138-1.158691-3.6606446h3.793945c.06836 1.2714908.577632 2.2797815 1.527832 3.0249024.9502.7451209 2.204582 1.1176758 3.763184 1.1176758 1.435554 0 2.587398-.2905245 3.455566-.8715821.868169-.5810576 1.302246-1.3569287 1.302246-2.3276367zM706.632812 52.4375v5.3730469h4.142579v2.9326172h-4.142579v13.7607421c0 .8886764.184569 1.5551736.553711 1.9995118.369143.4443381.998043.6665039 1.886719.6665039.437502 0 1.039059-.0820305 1.804688-.2460938V80c-.998052.2734389-1.968746.4101562-2.91211.4101562-1.695321 0-2.973628-.5126901-3.834961-1.5380859-.861332-1.0253957-1.291992-2.4814359-1.291992-4.3681641V60.7431641h-4.040039v-2.9326172h4.040039V52.4375h3.793945z" fill="#111"/>
    <path d="M218.986328 76.4667969h-6.068359V90h-7.617188V53.03125h13.736328c4.36721 0 7.735666.9732976 10.105469 2.9199219 2.369804 1.9466243 3.554688 4.6972478 3.554688 8.2519531 0 2.522148-.545893 4.6253171-1.637696 6.3095703-1.091802 1.6842532-2.746408 3.0257112-4.963867 4.0244141l7.998047 15.1074218V90h-8.175781l-6.931641-13.5332031zm-6.068359-6.1699219h6.144531c1.91277 0 3.393875-.4866488 4.443359-1.4599609 1.049485-.9733122 1.574219-2.3147701 1.574219-4.0244141 0-1.7434983-.495112-3.1145783-1.485351-4.1132812-.99024-.998703-2.50943-1.4980469-4.557618-1.4980469h-6.11914V70.296875zM245.748047 90h-7.363281V51h7.363281v39zM246.046875 35.609375h1.085937c.682296-.0104167 1.218749-.1901024 1.609376-.5390625.390626-.3489601.585937-.8203095.585937-1.4140625 0-1.33334-.664056-2-1.992187-2-.625004 0-1.123697.1783836-1.496094.5351562-.372398.3567727-.558594.8294242-.558594 1.4179688h-1.445312c0-.9010462.329423-1.6497366.988281-2.2460938.658857-.5963571 1.496088-.8945312 2.511719-.8945312 1.072922 0 1.914059.2838513 2.523437.8515625s.914063 1.3567658.914063 2.3671875c0 .4947941-.160155.973956-.480469 1.4375-.320314.463544-.756508.8098947-1.308594 1.0390625.625003.1979177 1.108071.5260394 1.449219.984375.341147.4583356.511718 1.0182259.511718 1.6796875 0 1.0208384-.333329 1.8307262-1 2.4296875-.66667.5989613-1.533848.8984375-2.601562.8984375-1.067714 0-1.936195-.2890596-2.605469-.8671875-.669274-.5781279-1.003906-1.3411411-1.003906-2.2890625h1.453125c0 .5989613.195311 1.0781232.585938 1.4375.390626.3593768.914059.5390625 1.570312.5390625.69792 0 1.231769-.1822898 1.601562-.546875.369794-.3645852.554688-.8880174.554688-1.5703125 0-.6614616-.203123-1.1692691-.609375-1.5234375-.406252-.3541684-.992184-.5364583-1.757813-.546875h-1.085937V35.609375zm14.015625 1.5390625c0 1.6927168-.28906 2.9505167-.867188 3.7734375-.578127.8229208-1.481764 1.234375-2.710937 1.234375-1.213548 0-2.111976-.4023397-2.695313-1.2070312-.583336-.8046916-.885416-2.0065025-.90625-3.6054688v-1.9296875c0-1.6718834.28906-2.9140584.867188-3.7265625s1.484369-1.21875 2.71875-1.21875c1.223964 0 2.124997.3919232 2.703125 1.1757812.578128.7838581.875 1.9934815.890625 3.6289063v1.875zm-1.445312-1.9765625c0-1.2239645-.171874-2.1158826-.515626-2.6757812-.343751-.5598987-.888017-.8398438-1.632812-.8398438-.739587 0-1.278644.278643-1.617188.8359375-.338543.5572945-.51302 1.4140567-.523437 2.5703125v2.3125c0 1.2291728.178384 2.1367158.535156 2.7226562.356773.5859405.897132.8789063 1.621094.8789063.713545 0 1.243488-.2760389 1.589844-.828125.346356-.5520861.527343-1.4218691.542969-2.609375V35.171875z" fill="#FFF"/>
  </g>
</svg>
